# xmcd
# Copyright (C) 1995-1998 Ti Kan
#
# Track frame offsets:
#       150
#       8253
#       19892
#       32129
#       46180
#       60107
#       75122
#       83620
#       93758
#       107429
#       119353
#
# Disc length: 1758 seconds
#
# Revision: 0
# Processed by: cddbd v1.5.2PL0 Copyright (c) Steve Scherf et al.
# Submitted via: CD-Import v1.0
#
DISCID=5f06dc0b
DTITLE=Stefan Kohler Feat. Daniel Schneider - Schrobschr
DYEAR=10
DGENRE=
TTITLE0=Souhuhn
TTITLE1=Liebi Grüss
TTITLE2=Jede Donnschtig
TTITLE3=Herr Knächt
TTITLE4=Frei
TTITLE5=Tenuwächsel
TTITLE6=Outomatisch
TTITLE7=Früeligsrolle
TTITLE8=Wartelischte
TTITLE9=Los
TTITLE10=Unggle Guugl
EXTD=
EXTT0=
EXTT1=
EXTT2=
EXTT3=
EXTT4=
EXTT5=
EXTT6=
EXTT7=
EXTT8=
EXTT9=
EXTT10=
PLAYORDER=
